# xmcd
#
# Track frame offsets:
#	182
#	28085
#	69445
#	81630
#	99002
#	146782
#
# Disc length: 2119 seconds
#
# Revision: 3
# Processed by: cddbd v1.5.2PL0 Copyright (c) Steve Scherf et al.
# Submitted via: audiograbber 1.80.04
#
DISCID=4d084506
DTITLE=Martinho da Vila - Tendinha
DYEAR=1978
DGENRE=Samba
TTITLE0=Minha Comadre - Garçon
TTITLE1=Zé Ferreira - Trepa No Coqueiro - Poeira do Caminho - Chora Viola, Chor
TTITLE1=a
TTITLE2=Mulata Faceira
TTITLE3=Amor Não É Brinquedo
TTITLE4=Que Pena, Que Pena - Deixa Serenar - Nem a Lua - O Pior É Saber - Se Eu
TTITLE4=Errei
TTITLE5=Deixa a Maria Sambar
EXTD=ID3G: 114
EXTT0=
EXTT1=
EXTT2=
EXTT3=
EXTT4=
EXTT5=
PLAYORDER=
